<svg width="24" height="24" viewBox="0 0 24 24" fill="none" xmlns="http://www.w3.org/2000/svg">
<g id="action / email">
<path id="Union" fill-rule="evenodd" clip-rule="evenodd" d="M4 16.8462V8.42354L11.47 13.4517C11.632 13.5605 11.816 13.6154 12 13.6154C12.184 13.6154 12.368 13.5605 12.53 13.4517L20 8.42354L20.001 16.8462H4ZM18.113 7.15385L12 11.2688L5.887 7.15385H18.113ZM20 5H4C2.897 5 2 5.966 2 7.15385V16.8462C2 18.034 2.897 19 4 19H20C21.103 19 22 18.034 22 16.8462V7.15385C22 5.966 21.103 5 20 5Z" fill="#281805"/>
</g>
</svg>
