<svg width="24" height="24" viewBox="0 0 24 24" fill="none" xmlns="http://www.w3.org/2000/svg">
<path d="M9.16797 5.125H14.832C15.5612 5.125 16.2318 5.30729 16.8438 5.67188C17.4688 6.03646 17.9635 6.53125 18.3281 7.15625C18.6927 7.76823 18.875 8.4388 18.875 9.16797V14.832C18.875 15.5612 18.6927 16.2383 18.3281 16.8633C17.9635 17.4753 17.4688 17.9635 16.8438 18.3281C16.2318 18.6927 15.5612 18.875 14.832 18.875H9.16797C8.4388 18.875 7.76172 18.6927 7.13672 18.3281C6.52474 17.9635 6.03646 17.4753 5.67188 16.8633C5.30729 16.2383 5.125 15.5612 5.125 14.832V9.16797C5.125 8.4388 5.30729 7.76823 5.67188 7.15625C6.03646 6.53125 6.52474 6.03646 7.13672 5.67188C7.76172 5.30729 8.4388 5.125 9.16797 5.125ZM9.16797 6.375C8.66016 6.375 8.19141 6.4987 7.76172 6.74609C7.33203 6.99349 6.99349 7.33203 6.74609 7.76172C6.4987 8.19141 6.375 8.66016 6.375 9.16797V14.832C6.375 15.3398 6.4987 15.8086 6.74609 16.2383C6.99349 16.668 7.33203 17.0065 7.76172 17.2539C8.19141 17.5013 8.66016 17.625 9.16797 17.625H14.832C15.3398 17.625 15.8086 17.5013 16.2383 17.2539C16.668 17.0065 17.0065 16.668 17.2539 16.2383C17.5013 15.8086 17.625 15.3398 17.625 14.832V9.16797C17.625 8.66016 17.5013 8.19141 17.2539 7.76172C17.0065 7.33203 16.668 6.99349 16.2383 6.74609C15.8086 6.4987 15.3398 6.375 14.832 6.375H9.16797ZM15.6914 7.74219C15.8477 7.74219 15.9779 7.80078 16.082 7.91797C16.1992 8.02214 16.2578 8.15234 16.2578 8.30859C16.2578 8.46484 16.1992 8.60156 16.082 8.71875C15.9779 8.82292 15.8477 8.875 15.6914 8.875C15.5352 8.875 15.3984 8.82292 15.2812 8.71875C15.1771 8.60156 15.125 8.46484 15.125 8.30859C15.125 8.15234 15.1771 8.02214 15.2812 7.91797C15.3984 7.80078 15.5352 7.74219 15.6914 7.74219ZM12 8.25C12.6771 8.25 13.3021 8.41927 13.875 8.75781C14.4479 9.09635 14.9036 9.55208 15.2422 10.125C15.5807 10.6979 15.75 11.3229 15.75 12C15.75 12.6771 15.5807 13.3021 15.2422 13.875C14.9036 14.4479 14.4479 14.9036 13.875 15.2422C13.3021 15.5807 12.6771 15.75 12 15.75C11.3229 15.75 10.6979 15.5807 10.125 15.2422C9.55208 14.9036 9.09635 14.4479 8.75781 13.875C8.41927 13.3021 8.25 12.6771 8.25 12C8.25 11.3229 8.41927 10.6979 8.75781 10.125C9.09635 9.55208 9.55208 9.09635 10.125 8.75781C10.6979 8.41927 11.3229 8.25 12 8.25ZM12 9.5C11.5443 9.5 11.1211 9.61068 10.7305 9.83203C10.3529 10.0534 10.0534 10.3594 9.83203 10.75C9.61068 11.1276 9.5 11.5443 9.5 12C9.5 12.4557 9.61068 12.8789 9.83203 13.2695C10.0534 13.6471 10.3529 13.9466 10.7305 14.168C11.1211 14.3893 11.5443 14.5 12 14.5C12.4557 14.5 12.8724 14.3893 13.25 14.168C13.6406 13.9466 13.9466 13.6471 14.168 13.2695C14.3893 12.8789 14.5 12.4557 14.5 12C14.5 11.5443 14.3893 11.1276 14.168 10.75C13.9466 10.3594 13.6406 10.0534 13.25 9.83203C12.8724 9.61068 12.4557 9.5 12 9.5Z" fill="#281805"/>
</svg>
