<svg width="24" height="24" viewBox="0 0 24 24" fill="none" xmlns="http://www.w3.org/2000/svg">
<path d="M7.09766 5.125C7.55339 5.125 7.9375 5.28776 8.25 5.61328C8.57552 5.9388 8.73828 6.32943 8.73828 6.78516C8.73828 7.24089 8.57552 7.63151 8.25 7.95703C7.92448 8.28255 7.53385 8.44531 7.07812 8.44531C6.63542 8.44531 6.2513 8.28255 5.92578 7.95703C5.60026 7.63151 5.4375 7.24089 5.4375 6.78516C5.4375 6.31641 5.60026 5.92578 5.92578 5.61328C6.2513 5.28776 6.64193 5.125 7.09766 5.125ZM15.1445 9.5C16.069 9.5 16.7917 9.6888 17.3125 10.0664C17.7812 10.418 18.1133 10.9323 18.3086 11.6094C18.4779 12.1693 18.5625 12.9115 18.5625 13.8359V18.875H15.7109V14.4023C15.7109 13.9206 15.6914 13.556 15.6523 13.3086C15.5872 12.8919 15.457 12.5794 15.2617 12.3711C15.0273 12.1107 14.6823 11.9805 14.2266 11.9805C13.7708 11.9805 13.4193 12.0911 13.1719 12.3125C12.9635 12.5078 12.8203 12.8008 12.7422 13.1914C12.6901 13.4518 12.6641 13.8294 12.6641 14.3242V18.875H9.8125V9.69531H12.5469V10.9453H12.5859C12.8073 10.5286 13.1068 10.1966 13.4844 9.94922C13.9531 9.64974 14.5065 9.5 15.1445 9.5ZM5.67188 9.69531H8.52344V18.875H5.67188V9.69531Z" fill="#281805"/>
</svg>
