<?xml version="1.0" encoding="UTF-8"?>
<svg xmlns="http://www.w3.org/2000/svg" height="512" viewBox="0 0 520 520" width="512">
  <g id="_x32_023_x5F_41_-_Layer_78_x2C__Network_x2C__protection_x2C__security_x2C__shield_x2C__web">
    <g>
      <g>
        <g>
          <path d="m260 505c-34.046 0-65.769-25.946-89.325-73.059-23.006-46.01-35.675-107.074-35.675-171.941 0-64.868 12.669-125.931 35.675-171.942 23.556-47.112 55.279-73.058 89.325-73.058s65.769 25.946 89.325 73.058c23.005 46.011 35.675 107.074 35.675 171.942 0 64.867-12.67 125.931-35.675 171.941-23.556 47.113-55.279 73.059-89.325 73.059zm0-480c-30.061 0-58.607 23.983-80.381 67.53-22.324 44.65-34.619 104.125-34.619 167.47s12.295 122.82 34.619 167.47c21.774 43.548 50.32 67.53 80.381 67.53s58.606-23.982 80.381-67.53c22.324-44.65 34.619-104.125 34.619-167.47s-12.295-122.82-34.619-167.47c-21.774-43.547-50.32-67.53-80.381-67.53z"></path>
        </g>
        <g>
          <g>
            <path d="m438.866 425c-.832 0-1.67-.207-2.437-.635-44.786-25.017-109.092-39.365-176.429-39.365s-131.643 14.348-176.43 39.365c-2.043 1.142-4.604.714-6.164-1.03-40.243-44.959-62.406-102.966-62.406-163.335 0-60.37 22.163-118.376 62.406-163.335 1.562-1.743 4.122-2.171 6.164-1.03 44.787 25.017 109.093 39.365 176.43 39.365s131.643-14.348 176.43-39.365c2.041-1.141 4.602-.713 6.164 1.03 40.243 44.959 62.406 102.965 62.406 163.335s-22.163 118.377-62.406 163.335c-.976 1.09-2.342 1.665-3.728 1.665zm-178.866-50c67.243 0 131.727 14.071 177.757 38.694 36.943-42.69 57.243-97.111 57.243-153.694s-20.3-111.004-57.243-153.695c-46.03 24.624-110.514 38.695-177.757 38.695-67.244 0-131.727-14.071-177.758-38.695-36.942 42.691-57.242 97.112-57.242 153.695s20.3 111.004 57.242 153.694c46.031-24.623 110.514-38.694 177.758-38.694z"></path>
          </g>
          <g>
            <path d="m260 145c-68.991 0-135.075-14.811-181.307-40.635-1.325-.741-2.243-2.043-2.493-3.541s.193-3.028 1.206-4.159c46.456-51.899 113.009-81.665 182.594-81.665s136.138 29.766 182.594 81.665c1.013 1.131 1.456 2.662 1.206 4.159s-1.168 2.8-2.493 3.541c-46.232 25.824-112.316 40.635-181.307 40.635zm-170.836-46.348c44.461 23.151 106.253 36.348 170.836 36.348s126.375-13.197 170.835-36.348c-44.315-46.885-106.214-73.652-170.835-73.652-64.622 0-126.52 26.767-170.836 73.652z"></path>
          </g>
          <g>
            <path d="m260 505c-69.584 0-136.137-29.766-182.594-81.665-1.013-1.132-1.457-2.662-1.206-4.159.25-1.498 1.168-2.801 2.493-3.541 46.232-25.824 112.316-40.635 181.307-40.635s135.075 14.811 181.307 40.635c1.325.74 2.243 2.043 2.493 3.541.25 1.497-.193 3.027-1.206 4.159-46.457 51.899-113.01 81.665-182.594 81.665zm-170.835-83.652c44.315 46.885 106.213 73.652 170.835 73.652 64.621 0 126.52-26.767 170.835-73.652-44.46-23.151-106.252-36.348-170.835-36.348s-126.375 13.197-170.835 36.348z"></path>
          </g>
        </g>
        <g>
          <path d="m500 265h-480c-2.761 0-5-2.238-5-5s2.239-5 5-5h480c2.762 0 5 2.238 5 5s-2.238 5-5 5z"></path>
        </g>
        <g>
          <path d="m260 505c-2.762 0-5-2.238-5-5v-480c0-2.761 2.238-5 5-5s5 2.239 5 5v480c0 2.762-2.238 5-5 5z"></path>
        </g>
      </g>
    </g>
  </g>
</svg>
