<svg xmlns="http://www.w3.org/2000/svg" width="16" height="16" viewBox="0 0 16 16"><path d="M10.9167,9.66667 L10.2583,9.66667 L10.025,9.44167 C10.8417,8.49167 11.3333,7.25833 11.3333,5.91667 C11.3333,2.925 8.90833,0.5 5.91667,0.5 C2.925,0.5 0.5,2.925 0.5,5.91667 C0.5,8.90833 2.925,11.3333 5.91667,11.3333 C7.25833,11.3333 8.49167,10.8417 9.44167,10.025 L9.66667,10.2583 L9.66667,10.9167 L13.8333,15.075 L15.075,13.8333 L10.9167,9.66667 Z M5.91667,9.66667 C3.84167,9.66667 2.16667,7.99167 2.16667,5.91667 C2.16667,3.84167 3.84167,2.16667 5.91667,2.16667 C7.99167,2.16667 9.66667,3.84167 9.66667,5.91667 C9.66667,7.99167 7.99167,9.66667 5.91667,9.66667 Z"/></svg>