<?xml version="1.0" encoding="UTF-8" standalone="no"?>
<!DOCTYPE svg PUBLIC "-//W3C//DTD SVG 1.1//EN" "http://www.w3.org/Graphics/SVG/1.1/DTD/svg11.dtd">
<svg width="100%" height="100%" viewBox="0 0 24 24" version="1.1" xmlns="http://www.w3.org/2000/svg" xmlns:xlink="http://www.w3.org/1999/xlink" xml:space="preserve" xmlns:serif="http://www.serif.com/" style="fill-rule:evenodd;clip-rule:evenodd;stroke-linejoin:round;stroke-miterlimit:2;">
    <g id="icon-globe">
        <path d="M12,0C5.417,0 -0,5.417 0,12C0,18.583 5.417,24 12,24C18.583,24 24,18.583 24,12C24,5.417 18.583,0 12,0ZM21.68,17.61L17.68,17.61C18.349,15.955 18.718,14.194 18.77,12.41L23.17,12.41C23.109,14.24 22.597,16.026 21.68,17.61ZM12.81,23.16L12.4,23.16L12.4,18.4L16.46,18.4C15.553,20.202 14.315,21.817 12.81,23.16ZM11.19,23.16C9.688,21.817 8.453,20.202 7.55,18.4L11.6,18.4L11.6,23.19L11.19,23.19L11.19,23.16ZM2.32,17.61C1.395,16.024 0.876,14.234 0.81,12.4L5.21,12.4C5.261,14.184 5.63,15.945 6.3,17.6L2.3,17.6L2.32,17.61ZM2.32,6.38L6.32,6.38C5.65,8.035 5.281,9.796 5.23,11.58L0.82,11.58C0.887,9.753 1.402,7.971 2.32,6.39L2.32,6.38ZM11.19,0.84L11.6,0.84L11.6,5.6L7.55,5.6C8.456,3.797 9.694,2.182 11.2,0.84L11.19,0.84ZM12.8,0.84C14.305,2.183 15.543,3.798 16.45,5.6L12.4,5.6L12.4,0.81L12.81,0.81L12.8,0.84ZM16.8,6.4C17.52,8.044 17.927,9.807 18,11.6L12.4,11.6L12.4,6.4L16.83,6.4L16.8,6.4ZM11.57,6.4L11.57,11.6L6,11.6C6.065,9.808 6.465,8.044 7.18,6.4L11.6,6.4L11.57,6.4ZM6,12.4L11.6,12.4L11.6,17.6L7.17,17.6C6.459,15.955 6.062,14.191 6,12.4ZM12.38,17.6L12.38,12.4L18,12.4C17.94,14.19 17.546,15.954 16.84,17.6L12.38,17.6ZM18.77,11.6C18.718,9.816 18.349,8.055 17.68,6.4L21.68,6.4C22.606,7.985 23.125,9.775 23.19,11.61L18.79,11.61L18.77,11.6ZM21.16,5.6L17.35,5.6C16.55,3.897 15.468,2.342 14.15,1C16.988,1.568 19.498,3.214 21.15,5.59L21.16,5.6ZM9.86,1C8.542,2.342 7.46,3.897 6.66,5.6L2.83,5.6C4.49,3.212 7.016,1.561 9.87,1L9.86,1ZM2.86,18.39L6.65,18.39C7.449,20.096 8.531,21.655 9.85,23C7.012,22.432 4.502,20.786 2.85,18.41L2.86,18.39ZM14.14,23C15.457,21.661 16.539,20.109 17.34,18.41L21.17,18.41C19.517,20.786 17.007,22.431 14.17,23L14.14,23Z" style="fill:rgb(38,24,8);fill-rule:nonzero;"/>
    </g>
</svg>
