<svg width="138" height="24" viewBox="0 0 138 24" fill="none" xmlns="http://www.w3.org/2000/svg">
<g id="Logo" clip-path="url(#clip0_2511_33137)">
<path id="Vector" d="M17.5154 0.171105L0.171875 6.48364L6.48442 23.8272L23.828 17.5147L17.5154 0.171105Z" fill="white"/>
<path id="Vector_2" d="M38.0691 17.5833C37.9812 17.5833 37.8907 17.4955 37.8907 17.4049L37.936 16.0045C37.1585 17.1387 35.9551 17.807 34.4214 17.807C31.2397 17.807 29.5703 15.227 29.5703 11.8882C29.5703 8.54938 31.3941 5.90283 34.464 5.90283C35.9764 5.90283 37.1559 6.4806 37.936 7.59354L37.8694 6.30221C37.8694 6.21435 37.9573 6.12382 38.0478 6.12382H40.4068C40.4947 6.12382 40.5852 6.21168 40.5852 6.30221L40.5186 11.819L40.5852 17.4023C40.5852 17.4901 40.4973 17.5807 40.4068 17.5807H38.0718L38.0691 17.5833ZM35.1323 15.9139C36.9349 15.9139 37.9812 14.58 38.0025 11.9308C38.0238 9.28424 37.0014 7.81453 35.1989 7.79322C33.2419 7.77192 32.2834 9.26294 32.2834 11.7098C32.2834 14.3803 33.2632 15.9139 35.1323 15.9139Z" fill="white"/>
<path id="Vector_3" d="M70.8809 17.8495C67.2545 17.8495 65.207 15.5145 65.207 11.8855C65.207 8.25912 67.2545 5.85486 70.8809 5.85486C74.4859 5.85486 76.5095 8.18989 76.5095 11.8189C76.5095 15.4666 74.4859 17.8495 70.8809 17.8495ZM70.8809 15.9591C72.8165 15.9591 73.7511 14.6252 73.7511 11.8881C73.7511 9.17236 72.7952 7.75058 70.8596 7.75058C68.8787 7.77188 67.9441 9.19633 67.9441 11.9121C67.9441 14.6039 68.9239 15.9618 70.8809 15.9618V15.9591Z" fill="white"/>
<path id="Vector_4" d="M77.735 17.5833C77.6472 17.5833 77.5566 17.4955 77.5566 17.4049L77.6232 12.1997L77.6019 6.30487C77.6019 6.21701 77.6898 6.12648 77.7803 6.12648H80.0275C80.1153 6.12648 80.2058 6.21435 80.2058 6.30487L80.1393 7.79588C80.8741 6.72821 82.1868 5.86023 83.8988 5.86023C86.2791 5.86023 87.8154 7.46307 87.8154 10.3546V12.7136L87.8606 17.4076C87.8606 17.4955 87.7728 17.586 87.6822 17.586H85.3232C85.2354 17.586 85.1448 17.4981 85.1448 17.4076L85.1901 12.7136V10.4211C85.1901 8.79699 84.3221 7.95031 83.0974 7.95031C81.7634 7.95031 80.4934 9.08455 80.2724 11.4648V12.7109L80.3177 17.4049C80.3177 17.4928 80.2298 17.5833 80.1393 17.5833H77.7377H77.735Z" fill="white"/>
<path id="Vector_5" d="M52.7043 12.1757C52.7043 12.2636 52.6164 12.3541 52.5259 12.3541H44.1602C44.272 14.801 45.2732 15.9592 47.2088 15.9592C48.5188 15.9592 49.4001 15.3574 49.7648 14.1167C49.7861 14.0049 49.898 13.9383 49.9858 13.9383H52.2277C52.3155 13.9383 52.4061 14.0262 52.3821 14.1167C51.9588 16.1935 50.103 17.8522 47.1582 17.8522C43.4653 17.8522 41.4844 15.3814 41.4844 11.8882C41.4844 8.39493 43.5984 5.85754 47.0704 5.85754C50.5423 5.85754 52.6324 8.2618 52.6989 12.1757H52.7043ZM49.8128 10.5516C49.7009 9.06056 48.8569 7.72664 47.097 7.72664C45.4941 7.72664 44.5383 8.70645 44.2481 10.5516H49.8101H49.8128Z" fill="white"/>
<path id="Vector_6" d="M64.2983 6.30224C64.2983 6.21437 64.2104 6.12385 64.1199 6.12385H61.7822C61.6943 6.12385 61.6038 6.21171 61.6038 6.30224L61.649 7.59356C60.8929 6.52589 59.7347 5.94812 58.2224 5.94812C55.1285 5.94812 53.3047 8.57337 53.3047 11.8003C53.3047 15.0273 55.0167 17.5195 58.3342 17.5195C59.8465 17.5195 61.0047 16.8512 61.7609 15.7169V17.0295C61.7609 19.1889 60.6266 20.1234 58.9572 20.1234C57.586 20.1234 56.6675 19.6122 56.4092 18.6138C56.3879 18.5019 56.2974 18.4354 56.2095 18.4354H53.8984C53.8106 18.4354 53.72 18.5232 53.72 18.6138C54.0502 20.9408 56.1483 22.0351 58.8907 21.9925C62.4079 21.9925 64.2743 20.1447 64.253 17.0748L64.2317 11.4462L64.2983 6.3049V6.30224ZM58.9146 15.669C57.0242 15.6903 56.0205 14.2898 56.0205 11.6859C56.0205 9.239 57.0003 7.76929 58.9146 7.81455C60.7385 7.83585 61.7396 9.28426 61.7183 11.8856C61.697 14.4229 60.6719 15.669 58.9146 15.669Z" fill="white"/>
<path id="Vector_7" d="M100.928 17.5647C100.861 17.5647 100.795 17.4981 100.795 17.4315L100.84 11.6379L100.795 6.22231C100.795 6.15574 100.861 6.08918 100.928 6.08918H101.775C101.841 6.08918 101.908 6.15574 101.908 6.22231L101.841 8.33901C102.6 6.82404 104.049 5.95605 105.606 5.95605C105.918 5.95605 106.187 5.97735 106.431 6.04392C106.498 6.06522 106.565 6.15574 106.565 6.22231V6.9119C106.565 6.97846 106.498 7.02373 106.431 6.99976C106.208 6.9332 105.92 6.9119 105.585 6.9119C103.913 6.9119 102.219 8.02484 101.887 10.5223L101.908 17.4289C101.908 17.4954 101.841 17.562 101.775 17.562H100.928V17.5647Z" fill="white"/>
<path id="Vector_8" d="M111.067 17.8096C107.747 17.8096 105.941 15.4267 105.941 11.8376C105.941 8.2485 107.747 5.84424 111.067 5.84424C114.387 5.84424 116.192 8.25116 116.192 11.8376C116.192 15.424 114.366 17.8096 111.067 17.8096ZM111.067 16.9416C113.74 16.9416 115.055 14.9581 115.055 11.8402C115.055 8.72243 113.719 6.71488 111.067 6.71488C108.415 6.73618 107.057 8.71976 107.057 11.8402C107.057 14.9607 108.415 16.9416 111.067 16.9416Z" fill="white"/>
<path id="Vector_9" d="M121.073 17.8308C118.757 17.8308 117.33 16.3372 117.33 13.1954V11.0121L117.309 6.22224C117.309 6.15567 117.375 6.08911 117.442 6.08911H118.31C118.376 6.08911 118.443 6.15567 118.443 6.22224L118.422 11.0121V13.0836C118.422 15.8473 119.558 16.8936 121.297 16.8936C123.036 16.8936 124.173 15.6023 124.929 13.5069V11.0121L124.907 6.22224C124.907 6.15567 124.974 6.08911 125.041 6.08911H125.909C125.975 6.08911 126.042 6.15567 126.042 6.22224L125.996 11.1239L126.042 17.4288C126.042 17.4954 125.975 17.5619 125.909 17.5619H125.062C124.995 17.5619 124.929 17.4954 124.929 17.4288L124.995 15.2003C124.327 16.4916 123.057 17.8308 121.073 17.8308Z" fill="white"/>
<path id="Vector_10" d="M132.59 17.7883C130.831 17.7883 129.539 16.9417 128.78 15.3814L128.826 21.2203C128.826 21.2869 128.759 21.3535 128.693 21.3535H127.825C127.758 21.3535 127.691 21.2869 127.691 21.2203L127.737 12.2849L127.691 6.225C127.691 6.15844 127.758 6.09188 127.825 6.09188H128.671C128.738 6.09188 128.804 6.15844 128.804 6.225L128.759 8.38697C129.494 6.82673 130.809 5.84692 132.614 5.84692C135.599 5.84692 137.205 8.45354 137.205 11.795C137.205 15.1365 135.578 17.7883 132.593 17.7883H132.59ZM132.367 16.9204C134.928 16.9204 136.089 14.6918 136.089 11.9281C136.089 9.16443 134.952 6.71491 132.391 6.71491C130.186 6.71491 128.714 8.40827 128.693 11.7071C128.671 14.982 130.053 16.9204 132.369 16.9204H132.367Z" fill="white"/>
<path id="Vector_11" d="M99.1688 6.22232C99.1688 6.15576 99.1022 6.08919 99.0356 6.08919H98.1889C98.1224 6.08919 98.0558 6.15576 98.0558 6.22232L98.1011 8.36033C97.3875 6.75482 96.0962 5.88684 94.3363 5.88684C91.285 5.88684 89.6582 8.53872 89.6582 11.8349C89.6582 15.1311 91.261 17.5167 94.3363 17.5167C96.0962 17.5167 97.3875 16.6248 98.1011 15.1098V16.4011C98.1011 19.6095 96.6314 20.9913 94.4481 20.9913C92.7281 20.9913 91.3223 20.2804 91.0267 18.5471C91.0054 18.4806 90.9389 18.414 90.8697 18.414H90.039C89.9724 18.414 89.9058 18.4806 89.9058 18.5471C90.1907 20.9035 92.1264 21.8806 94.4481 21.8593C97.3449 21.8593 99.1714 20.0089 99.1501 16.4011L99.1288 9.60639L99.1741 6.21966L99.1688 6.22232ZM94.6025 16.6727C92.0172 16.694 90.7711 14.8462 90.7711 11.8163C90.7711 8.78633 91.9959 6.71489 94.4694 6.71489C96.8098 6.71489 98.1676 8.6745 98.1463 11.9281C98.125 15.1578 96.6527 16.6514 94.6025 16.6754V16.6727Z" fill="white"/>
</g>
<defs>
<clipPath id="clip0_2511_33137">
<rect width="137.338" height="24" fill="white"/>
</clipPath>
</defs>
</svg>
