<?xml version="1.0" encoding="utf-8"?>
<!-- Generator: Adobe Illustrator 27.0.1, SVG Export Plug-In . SVG Version: 6.00 Build 0)  -->
<svg version="1.1" id="Layer_1" xmlns="http://www.w3.org/2000/svg" xmlns:xlink="http://www.w3.org/1999/xlink" x="0px" y="0px"
	 viewBox="0 0 60 60" style="enable-background:new 0 0 60 60;" xml:space="preserve">
<style type="text/css">
	.st0{fill-rule:evenodd;clip-rule:evenodd;}
</style>
<g>
	<path class="st0" d="M2,30c0-1.9,1.5-3.4,3.4-3.4h49.3c1.9,0,3.4,1.5,3.4,3.4s-1.5,3.4-3.4,3.4H5.4C3.5,33.4,2,31.9,2,30z"/>
	<path class="st0" d="M32.1,7.5c1.3-1.3,3.4-1.3,4.8,0L57,27.6c1.3,1.3,1.3,3.4,0,4.8L36.9,52.5c-1.3,1.3-3.4,1.3-4.8,0
		c-1.3-1.3-1.3-3.4,0-4.8L49.9,30L32.1,12.2C30.8,10.9,30.8,8.8,32.1,7.5z"/>
</g>
</svg>
