<svg width="96" height="96" viewBox="0 0 96 96" fill="none" xmlns="http://www.w3.org/2000/svg">
<path d="M40 62.308L62.308 48L40 33.692V62.308ZM48.013 84C43.035 84 38.3547 83.0553 33.972 81.166C29.59 79.2767 25.778 76.7127 22.536 73.474C19.294 70.2353 16.7277 66.4267 14.837 62.048C12.9457 57.67 12 52.9917 12 48.013C12 43.035 12.9447 38.3547 14.834 33.972C16.7233 29.59 19.2873 25.778 22.526 22.536C25.7647 19.294 29.5733 16.7277 33.952 14.837C38.33 12.9457 43.0083 12 47.987 12C52.965 12 57.6453 12.9447 62.028 14.834C66.41 16.7233 70.222 19.2873 73.464 22.526C76.706 25.7647 79.2723 29.5733 81.163 33.952C83.0543 38.33 84 43.0083 84 47.987C84 52.965 83.0553 57.6453 81.166 62.028C79.2767 66.41 76.7127 70.222 73.474 73.464C70.2353 76.706 66.4267 79.2723 62.048 81.163C57.67 83.0543 52.9917 84 48.013 84Z" fill="white"/>
</svg>
