<svg width="24" height="24" viewBox="0 0 24 24" fill="none" xmlns="http://www.w3.org/2000/svg">
<path d="M12 5.75C13.8359 5.75 15.737 5.89323 17.7031 6.17969C18.237 6.25781 18.6927 6.47917 19.0703 6.84375C19.4609 7.20833 19.7018 7.65104 19.793 8.17188C20.0143 9.36979 20.125 10.6458 20.125 12C20.125 13.3411 20.0143 14.6172 19.793 15.8281C19.7018 16.349 19.4609 16.7917 19.0703 17.1562C18.6797 17.5208 18.224 17.7422 17.7031 17.8203C15.737 18.1068 13.8359 18.25 12 18.25C10.1641 18.25 8.26302 18.1068 6.29688 17.8203C5.77604 17.7422 5.32031 17.5208 4.92969 17.1562C4.53906 16.7917 4.29818 16.349 4.20703 15.8281C3.98568 14.6172 3.875 13.3411 3.875 12C3.875 10.6589 3.98568 9.38281 4.20703 8.17188C4.29818 7.65104 4.53255 7.20833 4.91016 6.84375C5.30078 6.47917 5.76302 6.25781 6.29688 6.17969C8.26302 5.89323 10.1641 5.75 12 5.75ZM12 7C10.1901 7 8.34766 7.13672 6.47266 7.41016C6.21224 7.44922 5.98438 7.5599 5.78906 7.74219C5.60677 7.92448 5.48958 8.14583 5.4375 8.40625C5.22917 9.53906 5.125 10.737 5.125 12C5.125 13.263 5.22917 14.4609 5.4375 15.5938C5.48958 15.8542 5.60677 16.0755 5.78906 16.2578C5.98438 16.4401 6.21224 16.5508 6.47266 16.5898C8.36068 16.8633 10.2031 17 12 17C13.7969 17 15.6393 16.8633 17.5273 16.5898C17.7878 16.5508 18.0091 16.4401 18.1914 16.2578C18.3867 16.0755 18.5104 15.8542 18.5625 15.5938C18.7708 14.4609 18.875 13.263 18.875 12C18.875 10.737 18.7708 9.53906 18.5625 8.40625C18.5104 8.14583 18.3867 7.92448 18.1914 7.74219C18.0091 7.5599 17.7878 7.44922 17.5273 7.41016C15.6393 7.13672 13.7969 7 12 7ZM10.125 8.42578L11.0625 8.95312L15.4375 11.4531L16.375 12L15.4375 12.5469L11.0625 15.0469L10.125 15.5742V8.42578ZM11.375 10.5742V13.4258L13.8555 12L11.375 10.5742Z" fill="#281805"/>
</svg>
